<svg xmlns="http://www.w3.org/2000/svg" width="180" height="24" viewBox="0 0 182 24">
  <path d="M6.00781 8.34766v11.0078H2.23437V1.09376h3.3047L12.45312 12.625l6.78515-11.53125h3.32813l.02734 18.26172h-3.76953l-.02735-11.1914-5.51171 9.21093h-1.79297Zm25.0625 11.0078h-4.0039V1.09376h4.0039ZM39.4922 7.95704v11.39844h-3.94922V1.09375h3.30078L48.125 12.49609V1.09375h3.98047v18.26172h-3.30469Zm17.08203 2.26953h4.0039v5.8164h3.98047c.9336 0 1.78125-.1328 2.53516-.40234.7539-.26953 1.39844-.66406 1.9375-1.17578.53516-.51172.95313-1.125 1.2461-1.83984.29687-.71094.4414-1.51172.4414-2.39844s-.14453-1.6875-.4414-2.40234c-.29297-.71094-.71094-1.32422-1.2461-1.83594-.53906-.51562-1.1836-.90625-1.9375-1.17578-.7539-.26953-1.60156-.40234-2.53516-.40234h-7.98437V1.09375h8.1914c1.4922 0 2.84766.21875 4.07032.65234 1.22265.4375 2.27344 1.05079 3.15625 1.83985.88672.79297 1.57031 1.75 2.05469 2.8711.48828 1.12108.73046 2.3789.73046 3.76952 0 1.375-.24218 2.625-.73046 3.75782-.48438 1.1289-1.16797 2.08984-2.0547 2.8789-.8828.79297-1.93359 1.40625-3.15624 1.83985-1.22266.4375-2.57813.65234-4.07031.65234h-8.19141Zm21.47656 9.1289V9.36329h12.53516V12.625H82.0547v6.73047Zm0-15V1.09376h13.625v3.26172Zm24.625 15.28907c-1.28516 0-2.42969-.1836-3.4336-.55078-1.0039-.36328-1.85937-.89844-2.5625-1.60156-.69921-.70703-1.23827-1.57422-1.60937-2.60938-.375-1.03515-.5586-2.22265-.5586-3.5625V1.09375h4.00392v10.09766c0 1.77343.36328 3.05468 1.08984 3.84765.73047.79297 1.76172 1.1875 3.09375 1.1875 1.33594 0 2.36719-.39453 3.09375-1.1875.73047-.79297 1.09375-2.07422 1.09375-3.84765V1.09375h3.95312v10.22656c0 1.33985-.1875 2.52735-.5625 3.5625-.37109 1.03516-.91015 1.90235-1.60937 2.60938-.70313.70312-1.55469 1.23828-2.5625 1.60156-1.0039.36719-2.14844.55078-3.42969.55078Zm25.6875-.28906h-13.21094V1.09375h4.00391v14.94922h9.20703Zm9.125-6.46875v6.46875h-4.03125v-6.4961l-7.07031-11.76562h4.26172l4.96875 8.29688 4.99219-8.29688h3.94921Zm23.55469 3.15625v3.3125h-15.8086V16.7461l10.16797-12.33593h-9.95703V1.09375h15.23438v2.60938l-10.16406 12.33984Zm2.8086-4.38281V8.5039h13.625v3.15625Zm0-7.3047V1.09376h13.625v3.26172Zm0 11.73829v3.26172h13.625v-3.26172Zm0 0"/>
</svg>
