<svg xmlns="http://www.w3.org/2000/svg" width="512" height="55" fill="none">
  <g clip-path="url(#a)">
    <path fill="#00575C" d="M11.0148 21.1181v32.057H0V0h9.64745L29.854 33.5763 49.6807 0h9.7234l.076 53.1751H48.4653l-.076-32.5887-16.1044 26.8154h-5.2416L11.0148 21.1181Zm73.2297 32.057H72.546V0h11.6985v53.1751Zm24.6125-33.1965v33.1965H97.3104V0h9.6476l27.119 33.1965V0H145.7v53.1751h-9.648l-27.195-33.1965Zm49.909 6.6089h11.698v16.9401h11.623c2.734 0 5.203-.3925 7.406-1.1774 2.203-.785 4.09-1.9245 5.66-3.4184 1.569-1.494 2.785-3.2792 3.646-5.3555.861-2.0764 1.291-4.406 1.291-6.9888 0-2.5827-.43-4.9123-1.291-6.9887-.861-2.0763-2.077-3.8615-3.646-5.3555-1.57-1.4939-3.457-2.6334-5.66-3.4183-2.203-.785-4.672-1.17752-7.406-1.17752h-23.321V0h23.928c4.356 0 8.319.633037 11.889 1.89911 3.57 1.26607 6.647 3.05125 9.229 5.3555 2.583 2.30426 4.584 5.08959 6.002 8.35609 1.418 3.2665 2.127 6.9254 2.127 10.9768 0 4.0008-.709 7.6471-2.127 10.9389-1.418 3.2918-3.419 6.0898-6.002 8.3941-2.582 2.3043-5.659 4.0894-9.229 5.3555-3.57 1.266-7.533 1.8991-11.889 1.8991h-23.928V26.5875Zm62.746 26.5876V24.0807h36.615v9.4956h-24.916v19.5988h-11.699Zm0-43.67955V0h39.805v9.49555h-39.805Zm71.939 44.51515c-3.748 0-7.091-.5317-10.028-1.5952-2.937-1.0636-5.431-2.6208-7.482-4.6718-2.051-2.0511-3.621-4.5832-4.71-7.5965-1.089-3.0132-1.633-6.4696-1.633-10.3691V0h11.698v29.3982c0 5.1656 1.064 8.9005 3.191 11.2048 2.127 2.3042 5.14 3.4564 9.039 3.4564 3.9 0 6.913-1.1522 9.04-3.4564 2.127-2.3043 3.191-6.0392 3.191-11.2048V0h11.546v29.7781c0 3.8995-.544 7.3559-1.633 10.3691-1.089 3.0133-2.659 5.5454-4.71 7.5965-2.051 2.051-4.545 3.6082-7.482 4.6718-2.938 1.0635-6.28 1.5952-10.027 1.5952Zm75.052-.8356h-38.59V0h11.699v43.5276h26.891v9.6475Zm26.664-18.8392v18.8392h-11.775V34.26L362.73 0h12.458l14.509 24.1567L404.283 0h11.546l-20.662 34.3359Zm68.824 9.1917v9.6475h-46.187v-7.5965l29.702-35.93112h-29.094V0h44.515v7.59644L433.225 43.5276h30.766Zm8.204-12.762v-9.1917H512v9.1917h-39.805Zm0-21.27005V0H512v9.49555h-39.805Zm0 34.18395v9.4956H512v-9.4956h-39.805Z"/>
  </g>
  <defs>
    <clipPath id="a">
      <path fill="#fff" d="M0 0h512v54.0107H0z"/>
    </clipPath>
  </defs>
</svg>
